<?xml version="1.0" encoding="utf-8"?>
<!-- Generator: Adobe Illustrator 24.1.2, SVG Export Plug-In . SVG Version: 6.00 Build 0)  -->
<svg version="1.1" id="katman_1" xmlns="http://www.w3.org/2000/svg" xmlns:xlink="http://www.w3.org/1999/xlink" x="0px" y="0px"
	 viewBox="0 0 702 212.2" style="enable-background:new 0 0 702 212.2;" xml:space="preserve">
<style type="text/css">
	.st0{fill:#3C3C3B;}
	.st1{fill:#FED31D;}
	.st2{fill:#FFD500;}
</style>
<g>
	<path class="st0" d="M18.9,93.4c-2.8,0-5,0.7-6.8,2.1c-1.7,1.4-2.6,3.5-2.6,6.2c0,2.7,1,4.8,3.1,6.2c2.1,1.4,4.6,2.5,7.5,3.1
		c2.9,0.7,5.9,1.4,8.8,2.2c2.9,0.8,5.4,2.4,7.5,4.7c2.1,2.3,3.1,5.5,3.1,9.7c0,4.2-1.8,8-5.3,11.3c-3.5,3.3-8.3,5-14.2,5
		c-5.9,0-10.8-1.4-14.5-4.2c-3.7-2.8-5.6-6.6-5.6-11.5h10c0.2,2.5,1.1,4.5,2.8,6c1.6,1.5,4,2.2,7.2,2.2c3.2,0,5.7-0.8,7.5-2.5
		c1.8-1.6,2.7-3.6,2.7-5.8s-0.6-4-1.7-5.2c-1.1-1.3-2.6-2.2-4.3-2.8c-1.8-0.6-3.7-1.2-5.8-1.7c-2.1-0.5-4.3-1.1-6.4-1.7
		c-2.2-0.7-4.1-1.5-5.9-2.5c-1.8-1-3.2-2.5-4.3-4.5c-1.1-2-1.7-4.4-1.7-7.3c0-5,1.8-9,5.4-12c3.6-3,8.2-4.5,13.9-4.5
		c5.7,0,10.2,1.3,13.7,3.9c3.4,2.6,5.3,6.4,5.7,11.4H28.3c-0.2-2.2-1.1-4-2.8-5.5C23.9,94.1,21.7,93.4,18.9,93.4z"/>
	<path class="st0" d="M67.5,144c-6.5,0-11.9-2.1-15.9-6.4c-4.1-4.3-6.1-9.9-6.1-16.9c0-7,2.1-12.7,6.2-16.9
		c4.1-4.2,9.5-6.3,16.1-6.3c6.6,0,11.9,2,16,6.1c4.1,4.1,6.1,9.4,6.1,15.9c0,1.6-0.1,3.1-0.3,4.4H55c0.2,3.8,1.5,6.7,3.8,9
		c2.3,2.2,5.2,3.3,8.7,3.3c5.1,0,8.6-2.1,10.7-6.3h10.1c-1.4,4.1-3.8,7.5-7.4,10.2C77.3,142.7,72.8,144,67.5,144z M76.4,108.7
		c-2.4-2.2-5.3-3.3-8.7-3.3c-3.4,0-6.3,1.1-8.6,3.3c-2.3,2.2-3.6,5.2-4,8.9h25C80.1,113.8,78.8,110.9,76.4,108.7z"/>
	<path class="st0" d="M106.3,143.3H97V82.8h9.3V118l16.4-19.7h12.9l-20.8,22.6l20.8,22.5H123l-16.7-19.4V143.3z"/>
	<path class="st0" d="M143.2,137.5c-4.1-4.4-6.1-10-6.1-16.8c0-6.8,2-12.4,6.1-16.7c4.1-4.3,9.1-6.4,15.2-6.4c3.5,0,6.7,0.8,9.4,2.4
		c2.7,1.6,4.8,3.7,6.3,6.3v-8h9.4v45H174v-8.4c-1.5,2.8-3.6,5-6.3,6.7c-2.7,1.7-5.8,2.5-9.3,2.5C152.4,144,147.3,141.8,143.2,137.5z
		 M169.9,131.8c2.7-2.8,4-6.4,4-11.1c0-4.6-1.3-8.3-4-11c-2.7-2.7-5.9-4.1-9.6-4.1c-3.7,0-6.9,1.3-9.6,4c-2.7,2.7-4,6.3-4,11
		c0,4.6,1.3,8.4,4,11.2c2.7,2.8,5.9,4.2,9.6,4.2C164,135.9,167.2,134.6,169.9,131.8z"/>
	<path class="st0" d="M225.4,143.3h-9.3V86.5h9.3v25.9l22.1-25.9h12.2L234,115l25.7,28.3h-12.3l-22-25.4V143.3z"/>
	<path class="st0" d="M275.1,98.3v7.8c2.9-5.7,7.4-8.6,13.5-8.6v9.6h-2.4c-3.7,0-6.4,0.9-8.3,2.8c-1.9,1.9-2.8,5.1-2.8,9.6v23.7
		h-9.3v-45H275.1z"/>
	<path class="st0" d="M314.1,144c-6.5,0-11.9-2.1-15.9-6.4c-4.1-4.3-6.1-9.9-6.1-16.9c0-7,2.1-12.7,6.2-16.9
		c4.1-4.2,9.5-6.3,16.1-6.3c6.6,0,11.9,2,16,6.1c4.1,4.1,6.1,9.4,6.1,15.9c0,1.6-0.1,3.1-0.3,4.4h-34.5c0.2,3.8,1.5,6.7,3.8,9
		c2.3,2.2,5.2,3.3,8.7,3.3c5.1,0,8.6-2.1,10.7-6.3h10.1c-1.4,4.1-3.8,7.5-7.4,10.2C323.8,142.7,319.4,144,314.1,144z M323,108.7
		c-2.4-2.2-5.3-3.3-8.7-3.3c-3.4,0-6.3,1.1-8.6,3.3c-2.3,2.2-3.6,5.2-4,8.9h25C326.6,113.8,325.4,110.9,323,108.7z"/>
	<path class="st0" d="M346.6,137.5c-4.1-4.4-6.1-10-6.1-16.8c0-6.8,2-12.4,6.1-16.7c4.1-4.3,9.1-6.4,15.2-6.4c3.5,0,6.7,0.8,9.4,2.4
		c2.7,1.6,4.8,3.7,6.3,6.3v-8h9.4v45h-9.4v-8.4c-1.5,2.8-3.6,5-6.3,6.7c-2.7,1.7-5.8,2.5-9.3,2.5C355.7,144,350.7,141.8,346.6,137.5
		z M373.3,131.8c2.7-2.8,4-6.4,4-11.1c0-4.6-1.3-8.3-4-11c-2.7-2.7-5.9-4.1-9.6-4.1c-3.7,0-6.9,1.3-9.6,4c-2.7,2.7-4,6.3-4,11
		c0,4.6,1.3,8.4,4,11.2c2.7,2.8,5.9,4.2,9.6,4.2C367.4,135.9,370.6,134.6,373.3,131.8z"/>
	<path class="st0" d="M418.8,105.9h-11v24.9c0,1.7,0.4,2.9,1.2,3.6c0.8,0.7,2.1,1.1,4,1.1h5.7v7.8h-7.4c-8.7,0-13-4.2-13-12.5v-24.9
		h-5.3v-7.6h5.3V87.1h9.4v11.2h11V105.9z"/>
	<path class="st0" d="M435.9,86.3c0,1.7-0.6,3.1-1.7,4.3c-1.1,1.1-2.5,1.7-4.2,1.7c-1.7,0-3.1-0.6-4.2-1.7c-1.1-1.1-1.7-2.6-1.7-4.3
		s0.6-3.1,1.7-4.3c1.1-1.1,2.5-1.7,4.2-1.7c1.7,0,3.1,0.6,4.2,1.7C435.4,83.2,435.9,84.6,435.9,86.3z M425.3,143.3v-45h9.3v45H425.3
		z"/>
	<path class="st0" d="M463.7,98.3v7.6h-8.3v37.4H446v-37.4h-5.3v-7.6h5.3v-3.2c0-5.2,1.4-9,4.1-11.3c2.8-2.4,7.1-3.6,13-3.6V88
		c-2.8,0-4.8,0.5-6,1.6c-1.1,1.1-1.7,2.9-1.7,5.5v3.2H463.7z"/>
	<path class="st1" d="M478.4,86.2c2-2,4.5-3,7.6-3c3.1,0,5.7,1,7.6,3c1.9,2,2.9,4.5,2.9,7.6c0,3.1-1,5.6-2.9,7.6c-1.9,2-4.5,3-7.6,3
		c-3.1,0-5.7-1-7.6-3s-2.9-4.5-2.9-7.6C475.4,90.7,476.4,88.2,478.4,86.2z M476.9,93.8c0,2.8,0.8,5,2.4,6.7c1.6,1.7,3.8,2.5,6.6,2.5
		c2.8,0,5-0.8,6.6-2.5c1.6-1.7,2.4-3.9,2.4-6.7c0-2.8-0.8-5-2.4-6.7c-1.6-1.7-3.8-2.5-6.6-2.5s-5,0.8-6.6,2.5
		C477.7,88.8,476.9,91,476.9,93.8z M481.7,86.8h4.7c1.5,0,2.7,0.4,3.5,1.1c0.8,0.8,1.2,1.7,1.2,2.7c0,1-0.3,1.9-0.8,2.7
		c-0.6,0.7-1.4,1.2-2.6,1.4l3.6,5.6h-2.7l-3.4-5.5h-1.4v5.5h-2.2V86.8z M483.9,88.5v4.6h2.5c0.8,0,1.5-0.2,1.9-0.6
		c0.4-0.4,0.6-1,0.6-1.7c0-1.5-0.9-2.3-2.6-2.3H483.9z"/>
	<path id="XMLID_7_" class="st2" d="M636.5,189.4c-10.3,0-20-4-27.3-11.3l-46.9-46.9l-47.3,47.3c-3.8,3.8-8.5,6.8-13.7,8.5
		c-15.1,5-30.6,1.4-41.2-8.9L598.5,39.7c3.8-3.8,8.5-6.8,13.7-8.5c15.1-5,30.6-1.4,41.2,8.9l-63.6,63.6l74.2,74.2l-0.2,0.2
		C656.5,185.4,646.8,189.4,636.5,189.4z M520,110.6c-20.7-22-17-43.4-13-54.2c5.6-15,17.5-26.5,32.5-31.7c5.1-1.7,10.3-2.6,15.5-2.6
		c20,0,34.7,13.2,37.7,16.1l-26,25.9c-2.7-2.8-6.4-4.4-10.4-4.4c-0.6,0-1.2,0-1.8,0.1c-6.4,0.8-11.7,6-12.5,12.5
		c-0.6,4.5,1,9,4.2,12.2L520,110.6z"/>
</g>
</svg>
