<svg xmlns="http://www.w3.org/2000/svg" viewBox="0 0 203.99 167.38"><defs><style>.cls-1{fill:#1d1d1b;}</style></defs><g id="katman_2" data-name="katman 2"><g id="katman_1-2" data-name="katman 1"><path class="cls-1" d="M176.45,167.38a38.41,38.41,0,0,1-27.32-11.31l-46.89-46.9L54.91,156.51A35.15,35.15,0,0,1,41.24,165c-15.15,5-30.56,1.4-41.24-8.86L138.49,17.67a35,35,0,0,1,13.66-8.51c15.15-5,30.56-1.4,41.25,8.86L129.78,81.63,204,155.84l-.23.23A38.37,38.37,0,0,1,176.45,167.38ZM60,88.52c-20.71-22-17.05-43.4-13-54.23A53.1,53.1,0,0,1,79.52,2.62,47.53,47.53,0,0,1,95,0c20,0,34.72,13.16,37.73,16.07L106.72,42a14.42,14.42,0,0,0-10.36-4.39,16,16,0,0,0-1.83.11A14.42,14.42,0,0,0,86.28,62.3Z"/></g></g></svg>