<svg xmlns="http://www.w3.org/2000/svg" xmlns:xlink="http://www.w3.org/1999/xlink" viewBox="0 0 357.09 354.79"><defs><style>.cls-1{isolation:isolate;}.cls-107,.cls-115,.cls-2,.cls-3,.cls-92,.cls-93{opacity:0.2;}.cls-2{fill:url(#linear-gradient);}.cls-4{opacity:0;}.cls-5{opacity:0.09;}.cls-6{opacity:0.18;}.cls-7{opacity:0.27;}.cls-8{opacity:0.36;}.cls-9{opacity:0.45;}.cls-10{opacity:0.55;}.cls-11{opacity:0.64;}.cls-12{opacity:0.73;}.cls-13{opacity:0.82;}.cls-14{opacity:0.91;}.cls-15{fill:url(#linear-gradient-2);}.cls-16{fill:url(#linear-gradient-3);}.cls-17{opacity:0.82;fill:url(#linear-gradient-4);}.cls-107,.cls-108,.cls-110,.cls-17,.cls-21,.cls-63,.cls-71,.cls-94{mix-blend-mode:multiply;}.cls-18,.cls-23{opacity:0.6;}.cls-109,.cls-112,.cls-114,.cls-115,.cls-116,.cls-18,.cls-23,.cls-26,.cls-31,.cls-35,.cls-40,.cls-44,.cls-48,.cls-52{mix-blend-mode:screen;}.cls-18{fill:url(#radial-gradient);}.cls-19{fill:url(#linear-gradient-5);}.cls-20{fill:url(#linear-gradient-6);}.cls-21{fill:#bcbec0;}.cls-22{fill:url(#linear-gradient-7);}.cls-23{fill:url(#radial-gradient-2);}.cls-106,.cls-113,.cls-120,.cls-24,.cls-25,.cls-81,.cls-84,.cls-88,.cls-89,.cls-90,.cls-97{mix-blend-mode:color-dodge;}.cls-24{fill:url(#radial-gradient-3);}.cls-25{fill:url(#radial-gradient-4);}.cls-26{fill:url(#linear-gradient-8);}.cls-27{opacity:0.9;}.cls-28{fill:url(#linear-gradient-9);}.cls-29{fill:url(#linear-gradient-10);}.cls-30{fill:url(#linear-gradient-11);}.cls-31{fill:url(#linear-gradient-12);}.cls-32{fill:url(#linear-gradient-13);}.cls-33{fill:url(#linear-gradient-14);}.cls-34{fill:url(#linear-gradient-15);}.cls-35{fill:url(#linear-gradient-16);}.cls-36{fill:url(#linear-gradient-17);}.cls-37{fill:url(#linear-gradient-18);}.cls-38{fill:url(#linear-gradient-19);}.cls-39{fill:#fff;}.cls-40{fill:url(#linear-gradient-20);}.cls-41{fill:url(#linear-gradient-21);}.cls-42{fill:url(#linear-gradient-22);}.cls-43{fill:url(#linear-gradient-23);}.cls-44{fill:url(#linear-gradient-24);}.cls-45{fill:url(#linear-gradient-25);}.cls-46{fill:url(#linear-gradient-26);}.cls-47{fill:url(#linear-gradient-27);}.cls-48{fill:url(#linear-gradient-28);}.cls-49{fill:url(#linear-gradient-29);}.cls-50{fill:url(#linear-gradient-30);}.cls-51{fill:url(#linear-gradient-31);}.cls-52{fill:url(#linear-gradient-32);}.cls-53{fill:url(#linear-gradient-33);}.cls-54{fill:url(#linear-gradient-34);}.cls-55{fill:url(#linear-gradient-35);}.cls-56{fill:url(#linear-gradient-36);}.cls-57{fill:#138bbd;}.cls-58{fill:#18a0ca;}.cls-59{fill:#1cb6d7;}.cls-60{fill:#21cbe5;}.cls-61{fill:#25e1f2;}.cls-62{fill:#2af6ff;}.cls-63{fill:url(#linear-gradient-37);}.cls-64{fill:url(#linear-gradient-38);}.cls-65{fill:#9f19ab;}.cls-66{fill:#b228b2;}.cls-67{fill:#c537b9;}.cls-68{fill:#d945c0;}.cls-69{fill:#ec54c7;}.cls-70{fill:#ff63ce;}.cls-71{fill:url(#linear-gradient-39);}.cls-72{fill:url(#linear-gradient-40);}.cls-73{fill:#ffba78;}.cls-74{fill:#ffc281;}.cls-75{fill:#ffcb8b;}.cls-76{fill:#ffd394;}.cls-77{fill:#ffdc9e;}.cls-78{fill:#ffe4a7;}.cls-79{fill:url(#linear-gradient-41);}.cls-80{fill:url(#linear-gradient-42);}.cls-81{fill:url(#radial-gradient-5);}.cls-82{fill:#1f0d3d;}.cls-83{fill:url(#linear-gradient-43);}.cls-84{fill:url(#radial-gradient-6);}.cls-85{fill:#25054d;}.cls-86{fill:url(#linear-gradient-44);}.cls-87{fill:url(#linear-gradient-45);}.cls-88{fill:url(#radial-gradient-7);}.cls-89{fill:url(#radial-gradient-8);}.cls-90{fill:url(#radial-gradient-9);}.cls-91{fill:url(#linear-gradient-46);}.cls-92{fill:url(#linear-gradient-47);}.cls-93{fill:url(#linear-gradient-48);}.cls-94{fill:#e6e7e8;}.cls-95{fill:url(#linear-gradient-49);}.cls-96{fill:url(#linear-gradient-50);}.cls-97{fill:url(#radial-gradient-10);}.cls-98{fill:url(#linear-gradient-51);}.cls-99{fill:url(#linear-gradient-52);}.cls-100{fill:url(#radial-gradient-11);}.cls-101{fill:url(#linear-gradient-53);}.cls-102{fill:url(#linear-gradient-54);}.cls-103{fill:url(#linear-gradient-55);}.cls-104{fill:url(#linear-gradient-56);}.cls-105{fill:url(#linear-gradient-57);}.cls-106{fill:url(#radial-gradient-12);}.cls-107{fill:url(#radial-gradient-13);}.cls-108{opacity:0.3;fill:url(#radial-gradient-14);}.cls-109{fill:url(#radial-gradient-15);}.cls-110{fill:#939598;}.cls-111{fill:url(#linear-gradient-58);}.cls-112{fill:#58595b;}.cls-113{fill:url(#radial-gradient-16);}.cls-114{opacity:0.5;fill:url(#radial-gradient-17);}.cls-115{fill:url(#radial-gradient-18);}.cls-116{fill:url(#linear-gradient-59);}.cls-117{fill:url(#linear-gradient-60);}.cls-118{fill:url(#linear-gradient-61);}.cls-119{fill:url(#linear-gradient-62);}.cls-120{fill:url(#radial-gradient-19);}</style><linearGradient id="linear-gradient" x1="153.6" y1="285.35" x2="297.4" y2="285.35" gradientUnits="userSpaceOnUse"><stop offset="0.06" stop-color="#200041"/><stop offset="0.26" stop-color="#210243"/><stop offset="0.36" stop-color="#25084b"/><stop offset="0.43" stop-color="#2c1358"/><stop offset="0.47" stop-color="#311b61"/><stop offset="0.48" stop-color="#351f65"/><stop offset="0.5" stop-color="#422c73"/><stop offset="0.51" stop-color="#584188"/><stop offset="0.52" stop-color="#765fa7"/><stop offset="0.53" stop-color="#8770b8"/><stop offset="0.54" stop-color="#7e67ae"/><stop offset="0.56" stop-color="#5c468d"/><stop offset="0.59" stop-color="#442e75"/><stop offset="0.61" stop-color="#362066"/><stop offset="0.63" stop-color="#311b61"/><stop offset="0.67" stop-color="#2a1155"/><stop offset="0.75" stop-color="#230446"/><stop offset="0.81" stop-color="#200041"/><stop offset="1" stop-color="#200041"/></linearGradient><linearGradient id="linear-gradient-2" x1="153.6" y1="263.42" x2="297.4" y2="263.42" xlink:href="#linear-gradient"/><linearGradient id="linear-gradient-3" x1="192.08" y1="272.67" x2="257.27" y2="236.61" gradientUnits="userSpaceOnUse"><stop offset="0" stop-color="#311b61"/><stop offset="0.2" stop-color="#290f52"/><stop offset="0.49" stop-color="#200041"/><stop offset="1" stop-color="#0f001f"/></linearGradient><linearGradient id="linear-gradient-4" x1="226.65" y1="255.62" x2="239.45" y2="234.17" gradientUnits="userSpaceOnUse"><stop offset="0" stop-color="#fff"/><stop offset="1"/></linearGradient><radialGradient id="radial-gradient" cx="227.08" cy="284.78" r="51.16" gradientUnits="userSpaceOnUse"><stop offset="0" stop-color="#af8afc"/><stop offset="1" stop-color="#10054d"/></radialGradient><linearGradient id="linear-gradient-5" x1="332.18" y1="297.99" x2="112.12" y2="-6.5" xlink:href="#linear-gradient-3"/><linearGradient id="linear-gradient-6" x1="141.88" y1="23.82" x2="329.1" y2="305.34" gradientUnits="userSpaceOnUse"><stop offset="0.01" stop-color="#9f19ab"/><stop offset="0.43" stop-color="#5f27bd"/><stop offset="0.9" stop-color="#3d065f"/></linearGradient><linearGradient id="linear-gradient-7" x1="378.93" y1="304.61" x2="205.72" y2="27.85" xlink:href="#linear-gradient"/><radialGradient id="radial-gradient-2" cx="329.79" cy="147" r="29.48" xlink:href="#radial-gradient"/><radialGradient id="radial-gradient-3" cx="280.15" cy="116.05" r="117.94" gradientUnits="userSpaceOnUse"><stop offset="0" stop-color="#fa45c1"/><stop offset="0.21" stop-color="#cb389d"/><stop offset="0.67" stop-color="#571843"/><stop offset="1"/></radialGradient><radialGradient id="radial-gradient-4" cx="231.42" cy="295.85" r="48.53" xlink:href="#radial-gradient-3"/><linearGradient id="linear-gradient-8" x1="126.46" y1="186.99" x2="155.65" y2="167.28" gradientUnits="userSpaceOnUse"><stop offset="0" stop-color="#fdd65b"/><stop offset="0.01" stop-color="#f7d159"/><stop offset="0.13" stop-color="#bea144"/><stop offset="0.25" stop-color="#8b7632"/><stop offset="0.37" stop-color="#605223"/><stop offset="0.49" stop-color="#3e3416"/><stop offset="0.62" stop-color="#231d0c"/><stop offset="0.74" stop-color="#0f0d05"/><stop offset="0.87" stop-color="#040301"/><stop offset="1"/></linearGradient><linearGradient id="linear-gradient-9" x1="137.19" y1="190.57" x2="167.48" y2="181.5" gradientUnits="userSpaceOnUse"><stop offset="0.04" stop-color="#ffa98c"/><stop offset="0.32" stop-color="#ffb892"/><stop offset="0.86" stop-color="#fee1a3"/><stop offset="1" stop-color="#feeca8"/></linearGradient><linearGradient id="linear-gradient-10" x1="91.05" y1="194.35" x2="160.44" y2="178.79" xlink:href="#linear-gradient-9"/><linearGradient id="linear-gradient-11" x1="139.61" y1="153.93" x2="128.74" y2="174.63" xlink:href="#linear-gradient-9"/><linearGradient id="linear-gradient-12" x1="126.46" y1="158.5" x2="155.65" y2="138.8" xlink:href="#linear-gradient-8"/><linearGradient id="linear-gradient-13" x1="137.19" y1="162.09" x2="167.48" y2="153.02" xlink:href="#linear-gradient-9"/><linearGradient id="linear-gradient-14" x1="91.05" y1="165.86" x2="160.44" y2="150.31" xlink:href="#linear-gradient-9"/><linearGradient id="linear-gradient-15" x1="139.61" y1="125.44" x2="128.74" y2="146.15" xlink:href="#linear-gradient-9"/><linearGradient id="linear-gradient-16" x1="126.46" y1="129.75" x2="155.65" y2="110.05" xlink:href="#linear-gradient-8"/><linearGradient id="linear-gradient-17" x1="137.19" y1="133.34" x2="167.48" y2="124.27" xlink:href="#linear-gradient-9"/><linearGradient id="linear-gradient-18" x1="91.05" y1="137.11" x2="160.44" y2="121.56" xlink:href="#linear-gradient-9"/><linearGradient id="linear-gradient-19" x1="139.61" y1="96.69" x2="128.74" y2="117.4" xlink:href="#linear-gradient-9"/><linearGradient id="linear-gradient-20" x1="293.71" y1="245.9" x2="322.9" y2="226.2" gradientUnits="userSpaceOnUse"><stop offset="0" stop-color="#2af6ff"/><stop offset="0.02" stop-color="#29eef7"/><stop offset="0.13" stop-color="#1fb7be"/><stop offset="0.25" stop-color="#17868b"/><stop offset="0.37" stop-color="#105d60"/><stop offset="0.49" stop-color="#0a3b3e"/><stop offset="0.62" stop-color="#062123"/><stop offset="0.74" stop-color="#030f0f"/><stop offset="0.87" stop-color="#010404"/><stop offset="1"/></linearGradient><linearGradient id="linear-gradient-21" x1="304.44" y1="249.49" x2="334.73" y2="240.42" gradientUnits="userSpaceOnUse"><stop offset="0.04" stop-color="#138bbd"/><stop offset="0.23" stop-color="#169ac7"/><stop offset="0.59" stop-color="#1fc3df"/><stop offset="1" stop-color="#2af6ff"/></linearGradient><linearGradient id="linear-gradient-22" x1="258.3" y1="253.26" x2="327.69" y2="237.71" xlink:href="#linear-gradient-21"/><linearGradient id="linear-gradient-23" x1="306.86" y1="212.84" x2="295.99" y2="233.55" xlink:href="#linear-gradient-21"/><linearGradient id="linear-gradient-24" x1="293.71" y1="206.65" x2="322.9" y2="186.95" gradientUnits="userSpaceOnUse"><stop offset="0" stop-color="#c211a1"/><stop offset="0.01" stop-color="#bd119d"/><stop offset="0.15" stop-color="#8b0c73"/><stop offset="0.29" stop-color="#600850"/><stop offset="0.42" stop-color="#3e0533"/><stop offset="0.56" stop-color="#23031d"/><stop offset="0.7" stop-color="#0f010d"/><stop offset="0.85" stop-color="#040003"/><stop offset="1"/></linearGradient><linearGradient id="linear-gradient-25" x1="304.44" y1="210.24" x2="334.73" y2="201.17" gradientUnits="userSpaceOnUse"><stop offset="0.04" stop-color="#9f19ab"/><stop offset="0.24" stop-color="#ae25b1"/><stop offset="0.65" stop-color="#d744bf"/><stop offset="1" stop-color="#ff63ce"/></linearGradient><linearGradient id="linear-gradient-26" x1="258.3" y1="214.01" x2="327.69" y2="198.46" xlink:href="#linear-gradient-25"/><linearGradient id="linear-gradient-27" x1="306.86" y1="173.59" x2="295.99" y2="194.3" xlink:href="#linear-gradient-25"/><linearGradient id="linear-gradient-28" x1="293.71" y1="177.43" x2="322.9" y2="157.72" xlink:href="#linear-gradient-24"/><linearGradient id="linear-gradient-29" x1="304.44" y1="181.01" x2="334.73" y2="171.94" xlink:href="#linear-gradient-25"/><linearGradient id="linear-gradient-30" x1="258.3" y1="184.79" x2="327.69" y2="169.23" xlink:href="#linear-gradient-25"/><linearGradient id="linear-gradient-31" x1="306.86" y1="144.37" x2="295.99" y2="165.07" xlink:href="#linear-gradient-25"/><linearGradient id="linear-gradient-32" x1="293.71" y1="147.5" x2="322.9" y2="127.8" xlink:href="#linear-gradient-24"/><linearGradient id="linear-gradient-33" x1="304.44" y1="151.09" x2="334.73" y2="142.02" xlink:href="#linear-gradient-25"/><linearGradient id="linear-gradient-34" x1="258.3" y1="154.86" x2="327.69" y2="139.31" xlink:href="#linear-gradient-25"/><linearGradient id="linear-gradient-35" x1="306.86" y1="114.44" x2="295.99" y2="135.15" xlink:href="#linear-gradient-25"/><linearGradient id="linear-gradient-36" x1="-3421.54" y1="3056.64" x2="-3418.43" y2="3030.93" gradientTransform="matrix(0.87, 0.5, -1, 0.58, 6136.69, 257.94)" gradientUnits="userSpaceOnUse"><stop offset="0.03" stop-color="#d4d1d8"/><stop offset="1" stop-color="#eeebf2"/></linearGradient><linearGradient id="linear-gradient-37" x1="-3421.61" y1="3056.76" x2="-3418.84" y2="3033.91" xlink:href="#linear-gradient-36"/><linearGradient id="linear-gradient-38" x1="-3428.34" y1="3065.4" x2="-3421.84" y2="3042.1" xlink:href="#linear-gradient-36"/><linearGradient id="linear-gradient-39" x1="-3428.81" y1="3065.28" x2="-3422.75" y2="3043.58" xlink:href="#linear-gradient-36"/><linearGradient id="linear-gradient-40" x1="-3439.08" y1="3075.26" x2="-3421.69" y2="3045.67" xlink:href="#linear-gradient-36"/><linearGradient id="linear-gradient-41" x1="1305.53" y1="273.77" x2="1468.4" y2="273.77" gradientTransform="translate(-1274.21)" xlink:href="#linear-gradient"/><linearGradient id="linear-gradient-42" x1="70.64" y1="289.96" x2="179.83" y2="210.64" xlink:href="#linear-gradient-3"/><radialGradient id="radial-gradient-5" cx="5791.71" cy="290.68" r="61.47" gradientTransform="matrix(-1, 0, 0, 1, 5900.2, 0)" xlink:href="#linear-gradient-4"/><linearGradient id="linear-gradient-43" x1="21.28" y1="267.08" x2="162.51" y2="267.08" gradientUnits="userSpaceOnUse"><stop offset="0" stop-color="#861eb2"/><stop offset="0.43" stop-color="#5f27bd"/><stop offset="0.9" stop-color="#3d065f"/></linearGradient><radialGradient id="radial-gradient-6" cx="-262.2" cy="-1319.66" r="25.29" gradientTransform="matrix(0.53, -0.22, 0.25, 0.61, 588.89, 1070.63)" gradientUnits="userSpaceOnUse"><stop offset="0" stop-color="#972a74"/><stop offset="0.04" stop-color="#8a266a"/><stop offset="0.19" stop-color="#601b4a"/><stop offset="0.35" stop-color="#3d112f"/><stop offset="0.51" stop-color="#230a1b"/><stop offset="0.67" stop-color="#0f040c"/><stop offset="0.83" stop-color="#040103"/><stop offset="1"/></radialGradient><linearGradient id="linear-gradient-44" x1="134.3" y1="286.43" x2="158.49" y2="315.83" xlink:href="#linear-gradient-3"/><linearGradient id="linear-gradient-45" x1="136.62" y1="289.25" x2="173.19" y2="324.7" xlink:href="#linear-gradient-3"/><radialGradient id="radial-gradient-7" cx="7773.58" cy="297.15" r="7.87" gradientTransform="matrix(-1, 0, 0, 1, 7915.04, 0)" xlink:href="#linear-gradient-4"/><radialGradient id="radial-gradient-8" cx="7759.86" cy="286.84" r="3.63" gradientTransform="matrix(-1, 0, 0, 1, 7915.04, 0)" xlink:href="#linear-gradient-4"/><radialGradient id="radial-gradient-9" cx="7787.41" cy="302.83" r="3.63" gradientTransform="matrix(-1, 0, 0, 1, 7915.04, 0)" xlink:href="#linear-gradient-4"/><linearGradient id="linear-gradient-46" x1="7775.57" y1="299.97" x2="7771.69" y2="287.58" gradientTransform="matrix(-1, 0, 0, 1, 7915.04, 0)" xlink:href="#linear-gradient-3"/><linearGradient id="linear-gradient-47" x1="16.31" y1="296.72" x2="184.56" y2="296.72" xlink:href="#linear-gradient"/><linearGradient id="linear-gradient-48" x1="16.31" y1="286.48" x2="184.56" y2="286.48" xlink:href="#linear-gradient"/><linearGradient id="linear-gradient-49" x1="210.58" y1="151.03" x2="199.33" y2="111.28" gradientTransform="translate(95.82 -85.53) rotate(30.31)" gradientUnits="userSpaceOnUse"><stop offset="0.04" stop-color="#ffba78"/><stop offset="0.4" stop-color="#ffc987"/><stop offset="1" stop-color="#feeca8"/></linearGradient><linearGradient id="linear-gradient-50" x1="230.18" y1="222.35" x2="201.68" y2="136.6" xlink:href="#linear-gradient-21"/><radialGradient id="radial-gradient-10" cx="246.93" cy="137.44" r="44.73" xlink:href="#radial-gradient-3"/><linearGradient id="linear-gradient-51" x1="68.62" y1="283.87" x2="76.62" y2="249.37" xlink:href="#linear-gradient-9"/><linearGradient id="linear-gradient-52" x1="107.79" y1="280" x2="99.04" y2="253" xlink:href="#linear-gradient-9"/><radialGradient id="radial-gradient-11" cx="729.04" cy="5865.31" r="3.2" gradientTransform="translate(4913.32 -3172.47) rotate(61.68)" gradientUnits="userSpaceOnUse"><stop offset="0.1" stop-color="#8493ba"/><stop offset="0.21" stop-color="#606c90"/><stop offset="0.33" stop-color="#444d6e"/><stop offset="0.43" stop-color="#303756"/><stop offset="0.53" stop-color="#232a47"/><stop offset="0.62" stop-color="#1f2542"/><stop offset="0.71" stop-color="#242a49"/><stop offset="0.83" stop-color="#34395b"/><stop offset="0.98" stop-color="#4d5179"/><stop offset="0.98" stop-color="#4d517a"/></radialGradient><linearGradient id="linear-gradient-53" x1="723.58" y1="5856.86" x2="735.25" y2="5856.86" gradientTransform="translate(4913.32 -3172.47) rotate(61.68)" gradientUnits="userSpaceOnUse"><stop offset="0" stop-color="#7d62b8"/><stop offset="0.13" stop-color="#9039b1"/><stop offset="0.25" stop-color="#9f19ab"/><stop offset="0.29" stop-color="#89169c"/><stop offset="0.36" stop-color="#5e1080"/><stop offset="0.43" stop-color="#3c0b6a"/><stop offset="0.5" stop-color="#24085a"/><stop offset="0.56" stop-color="#150650"/><stop offset="0.62" stop-color="#10054d"/><stop offset="0.67" stop-color="#150754"/><stop offset="0.75" stop-color="#230e66"/><stop offset="0.84" stop-color="#391985"/><stop offset="0.93" stop-color="#5526ab"/><stop offset="0.96" stop-color="#4d1ba4"/><stop offset="1" stop-color="#4916a1"/></linearGradient><linearGradient id="linear-gradient-54" x1="723.12" y1="5835.64" x2="735.34" y2="5835.64" xlink:href="#linear-gradient-53"/><linearGradient id="linear-gradient-55" x1="2227.81" y1="5193.31" x2="2249.67" y2="5194.79" gradientTransform="translate(5333.43 -2011.07) rotate(90)" gradientUnits="userSpaceOnUse"><stop offset="0" stop-color="#d6dae6"/><stop offset="0.01" stop-color="#d4d8e6"/><stop offset="0.28" stop-color="#b4b8e3"/><stop offset="0.4" stop-color="#9a9fc8"/><stop offset="0.53" stop-color="#838ab0"/><stop offset="0.65" stop-color="#757da1"/><stop offset="0.76" stop-color="#70789c"/><stop offset="0.85" stop-color="#777ea2"/><stop offset="0.99" stop-color="#898eb3"/><stop offset="1" stop-color="#8b90b5"/></linearGradient><linearGradient id="linear-gradient-56" x1="723.18" y1="5792.43" x2="734.98" y2="5792.43" gradientTransform="translate(4913.32 -3172.47) rotate(61.68)" gradientUnits="userSpaceOnUse"><stop offset="0.01" stop-color="#c1a1d5"/><stop offset="0.05" stop-color="#c8abda"/><stop offset="0.11" stop-color="#dac6e6"/><stop offset="0.2" stop-color="#f7f2f9"/><stop offset="0.22" stop-color="#fff"/><stop offset="0.25" stop-color="#f9f5fb"/><stop offset="0.3" stop-color="#e9dbf2"/><stop offset="0.36" stop-color="#d1b4e3"/><stop offset="0.43" stop-color="#b395d6"/><stop offset="0.49" stop-color="#9c7dcb"/><stop offset="0.56" stop-color="#8e6ec5"/><stop offset="0.61" stop-color="#8969c3"/><stop offset="0.76" stop-color="#9471c6"/><stop offset="1" stop-color="#b086cc"/></linearGradient><linearGradient id="linear-gradient-57" x1="2206.04" y1="5148.64" x2="2223.74" y2="5149.85" gradientTransform="translate(5333.43 -2011.07) rotate(90)" xlink:href="#linear-gradient-56"/><radialGradient id="radial-gradient-12" cx="181.44" cy="203.59" r="3.72" gradientUnits="userSpaceOnUse"><stop offset="0" stop-color="#b4299a"/><stop offset="0.12" stop-color="#8a2076"/><stop offset="0.26" stop-color="#601652"/><stop offset="0.4" stop-color="#3e0e35"/><stop offset="0.55" stop-color="#23081e"/><stop offset="0.69" stop-color="#0f030d"/><stop offset="0.84" stop-color="#040103"/><stop offset="1"/></radialGradient><radialGradient id="radial-gradient-13" cx="8.62" cy="5028.78" r="21.08" gradientTransform="matrix(0.74, 0.68, -0.26, 0.28, 1390.58, -1170.51)" gradientUnits="userSpaceOnUse"><stop offset="0"/><stop offset="1" stop-color="#fff"/></radialGradient><radialGradient id="radial-gradient-14" cx="8.81" cy="5032.66" r="9.4" xlink:href="#radial-gradient-13"/><radialGradient id="radial-gradient-15" cx="1869.76" cy="-7226.93" r="12.83" gradientTransform="matrix(1.44, -0.76, 0.1, 0.18, -1847.08, 2947.06)" gradientUnits="userSpaceOnUse"><stop offset="0" stop-color="#fff"/><stop offset="0.13" stop-color="#ff63ce"/><stop offset="1"/></radialGradient><linearGradient id="linear-gradient-58" x1="114.91" y1="234.83" x2="120.73" y2="245.05" gradientTransform="translate(127.72 -26.77) rotate(28.56)" xlink:href="#linear-gradient-53"/><radialGradient id="radial-gradient-16" cx="118.59" cy="256.98" r="30.35" xlink:href="#radial-gradient-12"/><radialGradient id="radial-gradient-17" cx="-9903.99" cy="5306.83" r="7.68" gradientTransform="matrix(0.15, 0.19, -0.78, 0.62, 5766.73, -1145.11)" gradientUnits="userSpaceOnUse"><stop offset="0" stop-color="#742a97"/><stop offset="0.04" stop-color="#6a268a"/><stop offset="0.19" stop-color="#4a1b60"/><stop offset="0.35" stop-color="#2f113d"/><stop offset="0.51" stop-color="#1b0a23"/><stop offset="0.67" stop-color="#0c040f"/><stop offset="0.83" stop-color="#030104"/><stop offset="1"/></radialGradient><radialGradient id="radial-gradient-18" cx="-12999.13" cy="6880.73" r="7.68" gradientTransform="matrix(0.04, 0.14, -0.82, 0.25, 6300.87, 370.21)" xlink:href="#radial-gradient-17"/><linearGradient id="linear-gradient-59" x1="158.11" y1="82.02" x2="188.34" y2="46.75" gradientUnits="userSpaceOnUse"><stop offset="0" stop-color="#b086cc"/><stop offset="0.04" stop-color="#a37cbd"/><stop offset="0.17" stop-color="#785b8b"/><stop offset="0.3" stop-color="#533f60"/><stop offset="0.44" stop-color="#35283e"/><stop offset="0.57" stop-color="#1e1723"/><stop offset="0.71" stop-color="#0d0a0f"/><stop offset="0.85" stop-color="#030204"/><stop offset="1"/></linearGradient><linearGradient id="linear-gradient-60" x1="198.35" y1="98.55" x2="230.68" y2="82.88" gradientUnits="userSpaceOnUse"><stop offset="0" stop-color="#9f79c8"/><stop offset="0.14" stop-color="#a580cb"/><stop offset="0.33" stop-color="#b492d3"/><stop offset="0.55" stop-color="#cdb0e1"/><stop offset="0.58" stop-color="#d1b4e3"/><stop offset="0.76" stop-color="#dbc4e9"/><stop offset="1" stop-color="#ebdef3"/></linearGradient><linearGradient id="linear-gradient-61" x1="113.71" y1="103.41" x2="196.34" y2="47.84" xlink:href="#linear-gradient-60"/><linearGradient id="linear-gradient-62" x1="180.66" y1="29.28" x2="160.39" y2="58.89" xlink:href="#linear-gradient-60"/><radialGradient id="radial-gradient-19" cx="56.84" cy="222.73" r="47.61" xlink:href="#radial-gradient-3"/></defs><g class="cls-1"><g id="katman_2" data-name="katman 2"><g id="Layer_1" data-name="Layer 1"><path class="cls-2" d="M284.46,260.89c0,1.93-1.4,4-4.15,5.56l-39.81,38c-5,2.91-12.65,3.23-17,.71l-72.41-42.06c-2.1-1.21-3.06-2.87-2.92-4.59a2.69,2.69,0,0,0,0,.31v5.47c0,1.57,1,3.06,2.94,4.18l72.41,42.06c4.36,2.51,12,2.2,17-.71l39.81-38c2.79-1.62,4.2-3.69,4.16-5.65C284.46,265.84,284.52,262.24,284.46,260.89Z"/><g class="cls-3"><path class="cls-4" d="M230.88,309.81a21,21,0,0,1-10.43-2.51L148,265.25c-3.8-2.2-6-5.67-6-9.53,0-4.24,2.63-8.18,7.21-10.82l63.54-24.45a25.78,25.78,0,0,1,12.67-3.22,20.82,20.82,0,0,1,10.42,2.52l48.67,28.51c3.8,2.19,6,5.67,6,9.53,0,4.23-2.63,8.17-7.2,10.82l-39.81,38A25.61,25.61,0,0,1,230.88,309.81Z"/><path class="cls-5" d="M149.54,245.38l63.55-24.45a25,25,0,0,1,12.6-3.13,24,24,0,0,1,5.5.7,20.52,20.52,0,0,1,4.82,1.95L283,248s1.39.82,1.42.85a10.1,10.1,0,0,1,5.21,9.47c-.21,3.85-3.11,8.12-7.27,10.53l-39.08,37.3a25.16,25.16,0,0,1-12.36,3.14,20.47,20.47,0,0,1-10.18-2.44l-72.41-42.05c-3.65-2.11-5.72-5.42-5.7-9.09C142.63,251.66,145.15,247.91,149.54,245.38Z"/><path class="cls-6" d="M149.82,245.85l63.55-24.44a24.44,24.44,0,0,1,12.54-3,20.79,20.79,0,0,1,10.21,2.79l46.72,27.37c.09.05,1.34.79,1.41.85a9.25,9.25,0,0,1,4.44,9.42c-.38,3.44-3.59,8.06-7.33,10.22L243,305.64a24.57,24.57,0,0,1-12.05,3.07,19.83,19.83,0,0,1-9.93-2.37l-72.41-42c-3.51-2-5.46-5.18-5.43-8.65C143.21,251.85,145.61,248.28,149.82,245.85Z"/><path class="cls-7" d="M150.1,246.33l63.54-24.44a24,24,0,0,1,12.49-3,23.36,23.36,0,0,1,5.4.87,27.37,27.37,0,0,1,4.7,2.06l46.46,27.22c.14.08,1.3.77,1.4.86,3.55,2.3,4.28,5.7,3.67,9.36-.51,3-4.07,8-7.4,9.93l-37.64,35.93a24.13,24.13,0,0,1-11.75,3,19.38,19.38,0,0,1-9.69-2.3l-72.41-42.05c-3.35-1.94-5.2-4.93-5.14-8.21C143.78,252,146.07,248.65,150.1,246.33Z"/><path class="cls-8" d="M150.37,246.81l63.55-24.44a23.54,23.54,0,0,1,12.43-2.87,22.11,22.11,0,0,1,5.34,1,30.32,30.32,0,0,1,4.65,2.11l46.21,27.07c.18.1,1.25.75,1.38.87,3.47,2.33,4.52,5.9,2.9,9.3,0,2.69-4.55,7.95-7.46,9.63l-36.93,35.24A23.55,23.55,0,0,1,231,307.6a18.87,18.87,0,0,1-9.43-2.21l-72.41-42.06c-3.2-1.85-4.94-4.68-4.87-7.78C144.35,252.21,146.53,249,150.37,246.81Z"/><path class="cls-9" d="M150.65,247.29l63.54-24.45a23.12,23.12,0,0,1,12.38-2.78,22.55,22.55,0,0,1,5.29,1.05,38,38,0,0,1,4.59,2.16l45.95,26.92c.23.13,1.2.73,1.37.88,3.39,2.36,4.16,6,2.12,9.24,0,2.31-5,7.89-7.52,9.34L242.16,304.2A22.94,22.94,0,0,1,231,307.05a18.42,18.42,0,0,1-9.19-2.14l-72.4-42.06c-3.06-1.76-4.68-4.43-4.59-7.34C144.93,252.39,147,249.4,150.65,247.29Z"/><path class="cls-10" d="M150.92,247.77l63.55-24.45a22.56,22.56,0,0,1,12.32-2.69,22,22,0,0,1,5.24,1.13,48.8,48.8,0,0,1,4.53,2.22l45.7,26.77a15,15,0,0,1,1.35.88c3.31,2.4,3.79,6,1.35,9.19,0,1.92-5.5,7.83-7.58,9l-35.49,33.87a22.39,22.39,0,0,1-10.84,2.78,17.88,17.88,0,0,1-8.94-2.07L149.7,262.38c-2.9-1.68-4.42-4.19-4.31-6.91C145.5,252.57,147.45,249.77,150.92,247.77Z"/><path class="cls-11" d="M151.2,248.25l63.55-24.45A22.12,22.12,0,0,1,227,221.19a21.8,21.8,0,0,1,5.19,1.22c.63.21,4,2,4.47,2.27l45.44,26.62a12.46,12.46,0,0,1,1.34.89c3.23,2.44,3.43,6.09.58,9.13,0,1.54-6,7.78-7.65,8.74l-34.77,33.19a21.9,21.9,0,0,1-10.53,2.69,17.29,17.29,0,0,1-8.69-2L150,261.9c-2.76-1.59-4.16-3.94-4-6.47C146.07,252.75,147.92,250.14,151.2,248.25Z"/><path class="cls-12" d="M151.48,248.72,215,224.28a21.57,21.57,0,0,1,12.21-2.52,21.17,21.17,0,0,1,5.13,1.3c.48.16,4,2.1,4.42,2.33L282,251.86a11.24,11.24,0,0,1,1.32.89c3.15,2.47,3.06,6.15-.19,9.08,0,1.15-6.47,7.72-7.71,8.44l-34.06,32.5a21.29,21.29,0,0,1-10.22,2.62,16.84,16.84,0,0,1-8.45-1.92l-72.41-42.05c-2.6-1.51-3.89-3.69-3.75-6S148.38,250.51,151.48,248.72Z"/><path class="cls-13" d="M151.75,249.2l63.55-24.44a21,21,0,0,1,12.15-2.43,20.64,20.64,0,0,1,5.08,1.38c.31.11,4.1,2.23,4.36,2.38l44.93,26.32a10.36,10.36,0,0,1,1.31.9c3.06,2.51,2.7,6.21-1,9,0,.77-6.95,7.67-7.78,8.15l-33.33,31.81a20.75,20.75,0,0,1-9.92,2.55,16.32,16.32,0,0,1-8.2-1.85l-72.41-42.05c-2.46-1.42-3.63-3.45-3.48-5.59S148.84,250.89,151.75,249.2Z"/><path class="cls-14" d="M152,249.68l63.55-24.44a20.62,20.62,0,0,1,12.09-2.35,21,21,0,0,1,5,1.47c.15.06,4.17,2.36,4.3,2.43L281.67,253a7.66,7.66,0,0,1,1.3.91c3,2.53,2.33,6.26-1.73,9,0,.38-7.43,7.6-7.84,7.84l-32.62,31.13a20.25,20.25,0,0,1-9.61,2.48,15.7,15.7,0,0,1-7.95-1.78l-72.41-42.05c-2.31-1.33-3.38-3.2-3.2-5.15S149.3,251.26,152,249.68Z"/><path d="M223.49,302,151.08,260c-4.36-2.52-3.81-6.91,1.22-9.82l63.55-24.44c5-2.91,12.65-3.23,17-.71l48.67,28.51c4.36,2.52,3.81,6.92-1.22,9.82l-39.81,38C235.47,304.24,227.85,304.55,223.49,302Z"/></g><path class="cls-15" d="M223.49,301.93l-72.41-42.05c-1.94-1.12-2.91-2.62-2.94-4.19v-5.47c0-1.91,1.45,1.41,4.16-.16l63.55-24.45c5-2.9,12.65-3.22,17-.7l48.67,28.51c1.45.84,2.51-2.73,2.89-1.59.12.38,0,5.38.05,5.77,0,2-1.37,4-4.16,5.64l-39.81,38C235.47,304.14,227.85,304.45,223.49,301.93Z"/><path class="cls-16" d="M223.49,296.57l-72.41-42.06c-4.36-2.52-3.81-6.91,1.22-9.82l63.55-24.44c5-2.91,12.65-3.23,17-.71l48.67,28.51c4.36,2.52,3.81,6.92-1.22,9.82l-39.81,38C235.47,298.77,227.85,299.08,223.49,296.57Z"/><path class="cls-17" d="M281.53,248.05l-48.67-28.51c-4.36-2.52-12-2.2-17,.71l-32,12.31a8.6,8.6,0,0,0,1,.69l72.41,42.05a12,12,0,0,0,3.46,1.28l19.61-18.71C285.34,255,285.89,250.57,281.53,248.05Z"/><path class="cls-18" d="M280.31,257,240.5,295c-5,2.91-12.65,3.22-17,.7l-72.41-42a5.2,5.2,0,0,1-2.91-3.86c-.22,1.78.73,3.51,2.91,4.77l72.41,42.06c4.36,2.51,12,2.2,17-.71l39.81-38c2.94-1.7,4.34-3.91,4.13-6C284.21,253.69,282.82,255.51,280.31,257Z"/><path class="cls-19" d="M318.09,296.8,140.26,194c-9.09-5.25-16.46-19.33-16.46-31.45v-136c0-12.12,7.37-17.69,16.46-12.44L318.09,116.89c9.1,5.25,16.47,19.34,16.47,31.46v136C334.56,296.48,327.19,302.05,318.09,296.8Z"/><path class="cls-20" d="M320.21,287.33,144.89,186c-7.32-4.65-11.84-13.94-11.84-23.45V25.69a2.91,2.91,0,0,1,4.39-2.51l.52.3L313.47,124.9c8.71,5,11.84,13.94,11.84,23.45V284.82a3.15,3.15,0,0,1-4.71,2.73Z"/><path class="cls-21" d="M313.47,124.9,138,23.48l-.52-.3a2.91,2.91,0,0,0-4.39,2.51v136.9c0,9.51,4.52,18.8,11.84,23.45L320.21,287.33l.39.22a3.15,3.15,0,0,0,4.71-2.73V148.35C325.31,138.84,322.18,129.92,313.47,124.9Zm10,159.92a1.31,1.31,0,0,1-1.31,1.3,1.27,1.27,0,0,1-.64-.18l-175.7-101.5c-6.6-4.2-10.92-12.79-10.92-21.85V25.69A1.08,1.08,0,0,1,136,24.62a1.1,1.1,0,0,1,.54.15l176,101.73c9,5.2,10.92,14.75,10.92,21.85Z"/><path class="cls-22" d="M322.76,114.42,144.93,11.66c-3.6-2.08-6.93-2.46-9.64-1.41-.34.13-4.93,2.57-5.25,2.75h0c2.82-1.36,6.37-1.11,10.25,1.13L318.09,116.89c9.1,5.25,16.47,19.34,16.47,31.46v136c0,7.57-2.88,12.58-7.24,14a2.74,2.74,0,0,0,1.44-.49c.21-.12,5.19-2.93,5.39-3.07,3.12-2.19,5.07-6.69,5.07-12.92v-136C339.22,133.75,331.85,119.67,322.76,114.42Z"/><path class="cls-23" d="M318.88,116.5,141.05,13.74c-3.73-2.15-7.15-2.45-9.91-1.26a12.08,12.08,0,0,1,7.94,1.86L316.91,117.09c9.09,5.25,16.46,19.33,16.46,31.46v136c0,7.15-2.58,12-6.55,13.71,5.08-.8,8.53-6,8.53-14.3V148C335.35,135.83,328,121.75,318.88,116.5Z"/><path class="cls-24" d="M357.09,270.64h-1v-136c0-11.95-7.28-25.86-16.22-31L162.06.85l.49-.85L340.38,102.76c9.21,5.31,16.71,19.61,16.71,31.87Z"/><path class="cls-25" d="M230.88,320.79a15.53,15.53,0,0,1-7.63-1.76l-72.41-42,.49-.85,72.41,42.06c4.2,2.42,11.58,2.12,16.47-.68L280,279.56l.67.71-39.89,38.06A20.38,20.38,0,0,1,230.88,320.79Z"/><polygon class="cls-26" points="157.1 169.05 137.11 157.41 115.03 169.99 115.03 191.96 134.96 203.47 134.96 203.48 134.97 203.47 134.99 203.48 134.99 203.47 157.1 191.01 157.1 169.05"/><g class="cls-27"><polygon class="cls-28" points="134.96 181.69 134.96 203.48 144.02 198.25 144.02 176.29 134.96 181.69"/><polygon class="cls-29" points="134.99 181.69 134.99 203.48 115.03 191.96 115.03 169.99 134.99 181.69"/><polygon class="cls-30" points="115.03 169.99 134.99 181.69 144.02 176.29 124.02 164.65 115.03 169.99"/></g><polygon class="cls-31" points="157.1 140.56 137.11 128.92 115.03 141.5 115.03 163.47 134.96 174.98 134.96 175 134.97 174.99 134.99 175 134.99 174.98 157.1 162.53 157.1 140.56"/><g class="cls-27"><polygon class="cls-32" points="134.96 153.21 134.96 175 144.02 169.77 144.02 147.8 134.96 153.21"/><polygon class="cls-33" points="134.99 153.21 134.99 175 115.03 163.47 115.03 141.5 134.99 153.21"/><polygon class="cls-34" points="115.03 141.5 134.99 153.21 144.02 147.8 124.02 136.16 115.03 141.5"/></g><polygon class="cls-35" points="157.1 111.81 137.11 100.17 115.03 112.75 115.03 134.72 134.96 146.23 134.96 146.25 134.97 146.24 134.99 146.25 134.99 146.23 157.1 133.78 157.1 111.81"/><g class="cls-27"><polygon class="cls-36" points="134.96 124.46 134.96 146.25 144.02 141.02 144.02 119.05 134.96 124.46"/><polygon class="cls-37" points="134.99 124.46 134.99 146.25 115.03 134.72 115.03 112.75 134.99 124.46"/><polygon class="cls-38" points="115.03 112.75 134.99 124.46 144.02 119.05 124.02 107.41 115.03 112.75"/></g><polygon class="cls-39" points="130.51 139.5 119.34 133.05 119.34 120.24 130.51 126.69 130.51 139.5"/><path class="cls-39" d="M131.59,162c0,3.94-2.79,5.53-6.23,3.55a13.75,13.75,0,0,1-6.22-10.74c0-3.95,2.79-5.54,6.22-3.55A13.71,13.71,0,0,1,131.59,162Z"/><polygon class="cls-39" points="121.53 191.89 118.02 182.89 121.53 177.95 128.54 182 132.05 190.99 128.54 195.94 121.53 191.89"/><polygon class="cls-40" points="324.36 227.96 304.36 216.32 282.28 228.91 282.28 250.87 302.21 262.38 302.21 262.4 302.22 262.39 302.24 262.4 302.24 262.38 324.36 249.93 324.36 227.96"/><g class="cls-27"><polygon class="cls-41" points="302.21 240.61 302.21 262.4 311.27 257.17 311.27 235.2 302.21 240.61"/><polygon class="cls-42" points="302.24 240.61 302.24 262.4 282.28 250.87 282.28 228.91 302.24 240.61"/><polygon class="cls-43" points="282.28 228.91 302.24 240.61 311.27 235.2 291.27 223.56 282.28 228.91"/></g><polygon class="cls-44" points="324.36 188.71 304.36 177.07 282.28 189.66 282.28 211.62 302.21 223.13 302.21 223.15 302.22 223.14 302.24 223.15 302.24 223.13 324.36 210.68 324.36 188.71"/><g class="cls-27"><polygon class="cls-45" points="302.21 201.36 302.21 223.15 311.27 217.92 311.27 195.95 302.21 201.36"/><polygon class="cls-46" points="302.24 201.36 302.24 223.15 282.28 211.62 282.28 189.66 302.24 201.36"/><polygon class="cls-47" points="282.28 189.66 302.24 201.36 311.27 195.95 291.27 184.31 282.28 189.66"/></g><polygon class="cls-48" points="324.36 159.49 304.36 147.85 282.28 160.43 282.28 182.39 302.21 193.91 302.21 193.92 302.22 193.91 302.24 193.92 302.24 193.91 324.36 181.45 324.36 159.49"/><g class="cls-27"><polygon class="cls-49" points="302.21 172.13 302.21 193.92 311.27 188.69 311.27 166.73 302.21 172.13"/><polygon class="cls-50" points="302.24 172.13 302.24 193.92 282.28 182.39 282.28 160.43 302.24 172.13"/><polygon class="cls-51" points="282.28 160.43 302.24 172.13 311.27 166.73 291.27 155.09 282.28 160.43"/></g><polygon class="cls-52" points="324.36 129.56 304.36 117.92 282.28 130.5 282.28 152.47 302.21 163.98 302.21 164 302.22 163.99 302.24 164 302.24 163.98 324.36 151.53 324.36 129.56"/><g class="cls-27"><polygon class="cls-53" points="302.21 142.21 302.21 164 311.27 158.77 311.27 136.8 302.21 142.21"/><polygon class="cls-54" points="302.24 142.21 302.24 164 282.28 152.47 282.28 130.5 302.24 142.21"/><polygon class="cls-55" points="282.28 130.5 302.24 142.21 311.27 136.8 291.27 125.16 282.28 130.5"/></g><path class="cls-39" d="M296.45,170.48l-10.5,6-1.3,5.72,5.59,1.69,10.51-6ZM286,180l.55-2.43,3.07,5.29-2.37-.71Zm1-2.89,6.86-3.91,3.25,5.61-6.86,3.91Z"/><path class="cls-39" d="M295,154.36l2.09-4,2.86-1.63-4.62-8-2.87,1.63-4.55-.23a.19.19,0,0,0-.18.14l-2.5,8.5a.63.63,0,0,0,.15.51c.12.16.28.24.39.18l.18-.08-.16.12c-.1.06-.11.24,0,.43l0,.09a.6.6,0,0,0,.33.29l8.66,2.13A.18.18,0,0,0,295,154.36ZM287,151.75l3.05-2.12c.43.48.95.7,1.3.5s.45-1.09,0-1.86-1.17-1.19-1.62-.93-.42.76-.22,1.36l-3.38,1.55,2.14-7.26,4.11.2,3.92,6.75-1.9,3.63Z"/><path class="cls-39" d="M297.15,209.23l-1.72-3a5.65,5.65,0,0,1,2.54.08,1.36,1.36,0,0,0,1-.11c1.11-.63,1-2.9-.46-4.74A3.25,3.25,0,0,0,296,200a1.27,1.27,0,0,0-1.08.93,5.94,5.94,0,0,1-1.24,2.23l-1.7-2.93-1.67,1,.77,1.33-4.87,2.78a2.21,2.21,0,0,0-1,1.85l-.12,1.51a.48.48,0,0,1-.07.21l-.64.87a.77.77,0,0,0,.07.78c.16.27.42.49.65.46l1-.13a.37.37,0,0,1,.22,0l1.51.69a2.25,2.25,0,0,0,2.06.07l4.89-2.79.77,1.33Zm-7.84,1.55a1.75,1.75,0,0,1-1.63-.05l-1.51-.69a1,1,0,0,0-.53-.1l-.31,0,.26-.35a.93.93,0,0,0,.16-.5l.13-1.5a1.76,1.76,0,0,1,.78-1.47l4.87-2.78L294.2,208Z"/><path class="cls-39" d="M298.29,254.31l-2.87-5a1.37,1.37,0,0,0-1.11-.8l-.84-1.46c1.26-1.18,1.14-4-.38-6.6-1.66-2.87-4.35-4.42-6-3.48s-1.66,4,0,6.9c1.52,2.62,3.91,4.14,5.57,3.66l.84,1.45a1.37,1.37,0,0,0,.15,1.35l2.87,5c.36.62.94,1,1.3.75l.49-.28C298.65,255.6,298.65,254.93,298.29,254.31Zm-6.23-8.69c-1.09.62-2.87-.4-4-2.29s-1.09-3.92,0-4.55,2.87.4,4,2.29S293.16,245,292.06,245.62Z"/><g class="cls-3"><path class="cls-4" d="M113,354.79a13,13,0,0,1-6.48-1.56L77.4,296.82a6.88,6.88,0,0,1-3.72-5.93c0-2.63,1.63-5.08,4.48-6.73l17.29-6.33a16,16,0,0,1,7.87-2,13.07,13.07,0,0,1,6.49,1.56l75.63,46.27a6.86,6.86,0,0,1,3.72,5.93c0,2.63-1.63,5.08-4.48,6.73l-63.8,16.47A16,16,0,0,1,113,354.79Z"/><path class="cls-5" d="M78.43,284.32,95.58,278a15.26,15.26,0,0,1,1.52-.74,16.43,16.43,0,0,1,6.29-1.27,13.55,13.55,0,0,1,5.36,1c.34.15.75.36,1.07.54l75,45.91a7.6,7.6,0,0,1,3.89,5.54c0,.05,0,.11,0,.16.23,2.54-1.28,5-4.15,6.67l-63.16,16.31a17.27,17.27,0,0,1-7.8,2,12.43,12.43,0,0,1-6.86-1.38l-28.85-55.9a7.66,7.66,0,0,1-3.64-5.63,2.58,2.58,0,0,1,0-.29C74.05,288.44,75.57,286,78.43,284.32Z"/><path class="cls-6" d="M78.7,284.47l17-6.23c.4-.23,1.08-.52,1.51-.71a15.79,15.79,0,0,1,6.24-1.29,13.13,13.13,0,0,1,5.31,1c.3.14.76.38,1,.55l74.45,45.54c1.89,1.09,3.83,3.44,4.06,5.33a.9.9,0,0,0,0,.16c.45,2.44-1,4.93-3.83,6.6L122,351.58a18.6,18.6,0,0,1-7.72,2,11.92,11.92,0,0,1-7.23-1.2L78.47,297a8.69,8.69,0,0,1-3.56-5.63l-.06-.27C74.42,288.61,75.82,286.14,78.7,284.47Z"/><path class="cls-7" d="M79,284.63l16.89-6.18c.35-.21,1.12-.53,1.51-.7a15.67,15.67,0,0,1,6.17-1.31,12.82,12.82,0,0,1,5.26,1c.27.12.79.4,1,.54L183.7,323.2c1.68,1,4,3.44,4.23,5.11,0,.06,0,.1,0,.15.68,2.35-.6,4.86-3.51,6.54l-61.88,16a20.7,20.7,0,0,1-7.65,1.95,11.65,11.65,0,0,1-7.6-1L79,297c-1.65-.95-3.19-4-3.5-5.63,0-.08-.05-.17-.07-.26C74.79,288.79,76.08,286.3,79,284.63Z"/><path class="cls-8" d="M79.25,284.78,96,278.65c.31-.18,1.17-.52,1.5-.67a15.59,15.59,0,0,1,6.12-1.34,12.46,12.46,0,0,1,5.21,1c.24.11.8.42,1,.55L183.12,323c1.47.85,4.36,3.42,4.4,4.91l.06.14c.9,2.26-.26,4.78-3.19,6.47l-61.24,15.81a23,23,0,0,1-7.57,1.94,11.52,11.52,0,0,1-8-.84L79.54,297.1c-1.44-.83-3.35-4.17-3.42-5.62,0-.09-.07-.17-.1-.25C75.16,289,76.33,286.47,79.25,284.78Z"/><path class="cls-9" d="M79.52,284.94l16.62-6.09c.26-.15,1.21-.52,1.49-.65a15.35,15.35,0,0,1,6.06-1.36,12.19,12.19,0,0,1,5.16,1c.21.09.82.44,1,.54l72.68,44.47c1.26.73,4.53,3.42,4.57,4.69l.07.14c1.13,2.16.09,4.7-2.86,6.4l-60.6,15.65a26.42,26.42,0,0,1-7.5,1.91,11.32,11.32,0,0,1-8.35-.65L80.08,297.18c-1.24-.72-3.29-4.39-3.35-5.63l-.12-.24C75.53,289.14,76.59,286.63,79.52,284.94Z"/><path class="cls-10" d="M79.79,285.1l16.49-6c.22-.13,1.25-.53,1.48-.64a15.25,15.25,0,0,1,6-1.38,12,12,0,0,1,5.12,1c.17.08.83.46,1,.55l72.1,44.1c1,.61,4.71,3.42,4.74,4.48l.08.13c1.37,2.07.43,4.63-2.53,6.34l-60,15.48a30.5,30.5,0,0,1-7.42,1.9,11.28,11.28,0,0,1-8.71-.47L80.61,297.25c-1-.6-3.22-4.59-3.27-5.63l-.15-.22C75.89,289.32,76.84,286.8,79.79,285.1Z"/><path class="cls-11" d="M80.06,285.25l16.35-6c.18-.1,1.3-.52,1.49-.61a14.6,14.6,0,0,1,5.94-1.4,11.6,11.6,0,0,1,5.07,1c.13.06.84.47,1,.55l71.51,43.74c.84.48,4.88,3.42,4.91,4.26a1.13,1.13,0,0,0,.1.13c1.6,2,.77,4.54-2.22,6.27l-59.32,15.32a37.62,37.62,0,0,1-7.34,1.88c-2.89,1.15-6.72,1.08-9.09-.29L81.15,297.32c-.83-.48-3.16-4.8-3.2-5.63l-.17-.21C76.26,289.5,77.1,287,80.06,285.25Z"/><path class="cls-12" d="M80.33,285.41l16.22-5.94c.13-.08,1.34-.53,1.48-.6a14.5,14.5,0,0,1,5.88-1.42,11.34,11.34,0,0,1,5,1l.95.55,70.92,43.38c.63.37,5.06,3.42,5.07,4.06l.12.11c1.83,1.88,1.12,4.47-1.89,6.21L125.42,348a49.33,49.33,0,0,1-7.27,1.87c-3,1.31-7,1.31-9.46-.11l-27-52.32c-.62-.36-3.09-5-3.12-5.62l-.2-.2C76.62,289.68,77.35,287.13,80.33,285.41Z"/><path class="cls-13" d="M80.6,285.56l16.09-5.89c.09-.05,1.38-.53,1.47-.57a14.28,14.28,0,0,1,5.82-1.45,11.14,11.14,0,0,1,5,1.05l.93.55,70.33,43c.42.24,5.23,3.42,5.24,3.84a.69.69,0,0,1,.13.11c2.07,1.78,1.47,4.39-1.56,6.14l-58,15a73.69,73.69,0,0,1-7.2,1.85c-3,1.48-7.29,1.54-9.83.07L82.22,297.46a31.58,31.58,0,0,1-3-5.62l-.22-.19C77,289.86,77.61,287.29,80.6,285.56Z"/><path class="cls-14" d="M80.87,285.72l16-5.84s1.42-.54,1.47-.56a14,14,0,0,1,5.76-1.47,10.87,10.87,0,0,1,4.92,1l.92.56,69.74,42.65c.21.13,5.41,3.42,5.41,3.63l.15.1c2.3,1.68,1.81,4.32-1.24,6.08l-57.41,14.82c-.2.12-6.85,1.84-7.11,1.84-3.07,1.64-7.58,1.77-10.21.25l-26.48-51.3a61.57,61.57,0,0,1-3-5.62l-.25-.18C77.34,290.05,77.86,287.46,80.87,285.72Z"/><path d="M109.5,348.39,80.38,292c-2.71-1.56-2.37-4.3.76-6.11l17.29-6.32c3.13-1.81,7.87-2,10.58-.44l75.63,46.26c2.72,1.57,2.38,4.3-.76,6.11L120.08,348C117,349.76,112.21,350,109.5,348.39Z"/></g><polygon class="cls-56" points="160.13 342.6 74.52 281.13 100.56 269.07 186.17 330.54 160.13 342.6"/><polygon class="cls-57" points="95.35 292.76 85.68 285.82 106.09 276.37 115.76 283.31 95.35 292.76"/><polygon class="cls-58" points="108.02 301.86 98.36 294.92 118.76 285.47 128.43 292.41 108.02 301.86"/><polygon class="cls-59" points="120.7 310.96 111.03 304.02 131.44 294.57 141.11 301.51 120.7 310.96"/><polygon class="cls-60" points="133.37 320.06 123.7 313.11 144.11 303.66 153.78 310.61 133.37 320.06"/><polygon class="cls-61" points="146.04 329.15 136.37 322.21 156.78 312.76 166.45 319.7 146.04 329.15"/><polygon class="cls-62" points="158.71 338.25 149.04 331.31 169.45 321.86 179.12 328.8 158.71 338.25"/><polygon class="cls-63" points="160.13 342.6 74.52 281.13 100.56 269.07 167.38 339.23 160.13 342.6"/><polygon class="cls-64" points="135 347.65 70.57 278.14 100.07 269.11 164.5 338.62 135 347.65"/><polygon class="cls-65" points="87.32 291.8 80.04 283.94 103.16 276.86 110.44 284.71 87.32 291.8"/><polygon class="cls-66" points="96.86 302.08 89.58 294.23 112.7 287.15 119.98 295 96.86 302.08"/><polygon class="cls-67" points="106.39 312.37 99.12 304.52 122.24 297.44 129.51 305.29 106.39 312.37"/><polygon class="cls-68" points="115.93 322.66 108.65 314.81 131.77 307.73 139.05 315.58 115.93 322.66"/><polygon class="cls-69" points="125.47 332.95 118.19 325.1 141.31 318.02 148.59 325.87 125.47 332.95"/><polygon class="cls-70" points="135.01 343.24 127.73 335.39 150.85 328.31 158.13 336.16 135.01 343.24"/><polygon class="cls-71" points="135 347.65 70.57 278.14 100.07 269.11 144.13 344.98 135 347.65"/><polygon class="cls-72" points="109.22 350.49 67.6 275.47 99.48 269.68 141.1 344.7 109.22 350.49"/><polygon class="cls-73" points="79.81 290.63 75.11 282.16 100.09 277.62 104.8 286.09 79.81 290.63"/><polygon class="cls-74" points="85.97 301.73 81.27 293.26 106.25 288.72 110.95 297.19 85.97 301.73"/><polygon class="cls-75" points="92.13 312.84 87.43 304.37 112.42 299.83 117.11 308.3 92.13 312.84"/><polygon class="cls-76" points="98.29 323.94 93.59 315.47 118.58 310.93 123.28 319.4 98.29 323.94"/><polygon class="cls-77" points="104.45 335.05 99.75 326.57 124.73 322.04 129.44 330.51 104.45 335.05"/><polygon class="cls-78" points="110.61 346.15 105.91 337.68 130.9 333.14 135.59 341.62 110.61 346.15"/><g class="cls-3"><path class="cls-4" d="M117.08,326.25a13.61,13.61,0,0,1-6.76-1.63L21.19,273.39a7.16,7.16,0,0,1-3.88-6.19c0-2.74,1.7-5.3,4.67-7l50.75-29.26A16.75,16.75,0,0,1,81,228.85a13.53,13.53,0,0,1,6.76,1.63l89.13,51.23a7.14,7.14,0,0,1,3.88,6.18c0,2.74-1.7,5.3-4.67,7l-50.76,29.25A16.69,16.69,0,0,1,117.08,326.25Z"/><path class="cls-5" d="M73,231.1a16.14,16.14,0,0,1,8.19-2,15.49,15.49,0,0,1,3.27.39,13.25,13.25,0,0,1,3.44,1.34l88.84,51.07a6.53,6.53,0,0,1,3.58,6.11,7.48,7.48,0,0,1-.37,1.8,10.07,10.07,0,0,1-4.47,4.94l-50.12,28.89a16.69,16.69,0,0,1-2,1,17.36,17.36,0,0,1-6.06,1.15,13.31,13.31,0,0,1-6.68-1.58L21.47,272.93a6.52,6.52,0,0,1-3.56-6.13,7.35,7.35,0,0,1,.28-1.53,10,10,0,0,1,4.58-5.21Z"/><path class="cls-6" d="M73.3,231.26a15.91,15.91,0,0,1,8.18-2,14.05,14.05,0,0,1,6.64,1.83L176.69,282a6,6,0,0,1,3.27,6,8.11,8.11,0,0,1-.46,1.72c-.59,1.61-2.68,3.66-4.54,4.74l-49.5,28.53a17.78,17.78,0,0,1-2,1,16.61,16.61,0,0,1-6,1.18,13,13,0,0,1-6.61-1.52L21.75,272.47a5.93,5.93,0,0,1-3.24-6.07,9.76,9.76,0,0,1,.37-1.46c.55-1.7,2.73-3.88,4.68-5Z"/><path class="cls-7" d="M73.58,231.42a15.61,15.61,0,0,1,8.16-1.91A16,16,0,0,1,85,230a18.16,18.16,0,0,1,3.36,1.43l88.29,50.74a5.46,5.46,0,0,1,3,6,9.35,9.35,0,0,1-.56,1.64c-.57,1.41-3,3.58-4.6,4.54l-48.88,28.17a21.5,21.5,0,0,1-2,1,16.8,16.8,0,0,1-5.87,1.21,12.6,12.6,0,0,1-6.52-1.47L22,272a5.41,5.41,0,0,1-2.93-6,10.76,10.76,0,0,1,.46-1.39c.54-1.49,3-3.81,4.77-4.81Z"/><path class="cls-8" d="M73.86,231.58A15.39,15.39,0,0,1,82,229.73a15.59,15.59,0,0,1,3.19.57,22.36,22.36,0,0,1,3.33,1.47l88,50.59a5,5,0,0,1,2.67,5.89,11.52,11.52,0,0,1-.67,1.55c-.54,1.22-3.22,3.51-4.67,4.35L125.62,322c-.42.24-1.49.8-1.94,1a16.61,16.61,0,0,1-5.79,1.25,12.32,12.32,0,0,1-6.44-1.42L22.32,271.55c-2.46-1.42-3.31-3.67-2.61-5.95.14-.44.37-.86.55-1.32.52-1.29,3.35-3.73,4.87-4.61Z"/><path class="cls-9" d="M74.15,231.75a14.87,14.87,0,0,1,8.12-1.8,15.21,15.21,0,0,1,3.17.63,26.11,26.11,0,0,1,3.29,1.51l87.73,50.43c2.43,1.4,3.19,3.62,2.37,5.83-.19.49-.51.94-.76,1.46-.5,1-3.5,3.43-4.74,4.15L125.7,321.42c-.36.2-1.52.82-1.91,1a16.09,16.09,0,0,1-5.69,1.29,12.07,12.07,0,0,1-6.37-1.37L22.6,271.09c-2.45-1.41-3.18-3.66-2.29-5.89A7,7,0,0,1,21,264c.29-1.16,3.67-3.65,5-4.4Z"/><path class="cls-10" d="M74.43,231.91a14.55,14.55,0,0,1,8.1-1.73,14.14,14.14,0,0,1,3.15.68,32.67,32.67,0,0,1,3.26,1.56l87.45,50.26c2.41,1.4,3.06,3.61,2.06,5.76a6.18,6.18,0,0,1-.86,1.38c-.27.92-3.77,3.36-4.8,3.95l-47,27.1c-.3.17-1.55.84-1.88,1a16,16,0,0,1-5.6,1.33,11.79,11.79,0,0,1-6.29-1.32L22.89,270.63c-2.45-1.41-3.06-3.66-2-5.83a6.73,6.73,0,0,1,.73-1.18c.24-1,4-3.58,5.06-4.2Z"/><path class="cls-11" d="M74.71,232.07a13.3,13.3,0,0,1,11.21-.93c.45.15,2.85,1.39,3.22,1.6l87.17,50.1c2.41,1.39,2.94,3.6,1.76,5.69a6.25,6.25,0,0,1-.95,1.3c-.22.73-4.05,3.28-4.88,3.75l-46.38,26.74c-.24.14-1.59.87-1.85,1a15.78,15.78,0,0,1-5.51,1.36,11.57,11.57,0,0,1-6.2-1.26L23.17,270.18c-2.45-1.42-2.94-3.67-1.66-5.78a7.36,7.36,0,0,1,.82-1.11c.19-.77,4.29-3.5,5.16-4Z"/><path class="cls-12" d="M75,232.23a13.93,13.93,0,0,1,8.06-1.61,14.63,14.63,0,0,1,3.1.8c.34.11,2.91,1.48,3.19,1.64L176.23,283c2.41,1.38,2.83,3.58,1.46,5.61a6.5,6.5,0,0,1-1.05,1.22c-.16.55-4.32,3.2-4.94,3.56l-45.76,26.37c-.18.1-1.62.9-1.81,1a15.54,15.54,0,0,1-5.42,1.4,11.22,11.22,0,0,1-6.13-1.21L23.45,269.72c-2.44-1.41-2.83-3.67-1.34-5.72a6.65,6.65,0,0,1,.91-1c.15-.58,4.6-3.42,5.25-3.8Z"/><path class="cls-13" d="M75.28,232.4a13.61,13.61,0,0,1,8-1.56,14.33,14.33,0,0,1,3.07.86c.22.08,3,1.58,3.15,1.69l86.61,49.78c2.39,1.38,2.72,3.59,1.15,5.54a6.82,6.82,0,0,1-1.14,1.14c-.11.36-4.6,3.12-5,3.36l-45.14,26c-.12.07-1.65.93-1.78,1a15.53,15.53,0,0,1-5.33,1.44,11,11,0,0,1-6-1.16L23.73,269.26c-2.44-1.41-2.72-3.68-1-5.66a7.12,7.12,0,0,1,1-1c.1-.38,4.92-3.35,5.35-3.6Z"/><path class="cls-14" d="M75.56,232.56a13.42,13.42,0,0,1,8-1.5,14.15,14.15,0,0,1,3,.92c.11,0,3,1.68,3.11,1.73l86.33,49.62c2.39,1.38,2.61,3.59.86,5.47a7.41,7.41,0,0,1-1.25,1.06c-.05.18-4.87,3-5.07,3.16L126.1,318.67l-1.75,1a15,15,0,0,1-5.24,1.48,10.65,10.65,0,0,1-6-1.11L24,268.8c-2.44-1.41-2.62-3.7-.71-5.6a7.8,7.8,0,0,1,1.09-.9c.05-.19,5.23-3.27,5.45-3.39Z"/><path d="M113.43,319.57,24.3,268.34c-2.83-1.63-2.47-4.48.79-6.37l50.75-29.25c3.27-1.89,8.21-2.09,11-.46L176,283.49c2.83,1.64,2.47,4.49-.79,6.37l-50.76,29.26C121.2,321,116.26,321.21,113.43,319.57Z"/></g><path class="cls-79" d="M125.81,319,176,290.06c2-1.16,3-2.7,3-4.31,0-.15,0-3.25,0-3.4-.16-1.87-1.6-.84-4.25-2.37l-87.92-50.7c-5.17-3-13-3.3-17.45-.72l-50.2,28.93c-2,1.16-3-.87-3,.74,0,.14,0,3.85,0,4,.16,1.87,1.6,3.81,4.26,5.35l87.92,50.69C113.52,321.24,121.34,321.57,125.81,319Z"/><path class="cls-80" d="M125.81,315.59,176,286.66c4.47-2.59,3.91-7.1-1.25-10.08L86.84,225.89c-5.17-3-13-3.31-17.45-.73l-50.2,28.93c-4.48,2.59-3.92,7.1,1.25,10.08l87.92,50.69C113.52,317.85,121.34,318.17,125.81,315.59Z"/><path class="cls-81" d="M176,286.21l-50.2,28.93c-4.47,2.58-12.29,2.26-17.45-.72l-87.92-50.7c-2.72-1.57-4.16-3.56-4.27-5.47-.11,2,1.34,4.23,4.27,5.92l87.92,50.69c5.16,3,13,3.31,17.45.73L176,286.66c2.12-1.23,3.11-2.88,3-4.6C178.94,283.62,178,285.09,176,286.21Z"/><path class="cls-82" d="M171.9,278,84.33,227.54c-3.79-2.19-9.52-2.43-12.8-.53L22.38,255.33c-3.28,1.89-2.87,5.2.92,7.39l87.56,50.49c3.8,2.19,9.53,2.43,12.81.53l49.15-28.32C176.1,283.53,175.69,280.22,171.9,278Z"/><path class="cls-83" d="M162.51,273.53,83,227.7a12.32,12.32,0,0,0-11.17,0l-48.25,27.8c-3.1,1.79-3.11,4.68,0,6.45l79.48,45.83Z"/><path d="M156.81,300.83l-7.1,4.1h0a4.23,4.23,0,0,1,1.76-3.37l3.58-2.06c1-.56,1.76,0,1.76,1.33Z"/><path class="cls-84" d="M131.46,311.51c3.53,8.57.43,18-6.9,21s-16.15-1.5-19.67-10.07-.43-18,6.9-21S127.94,302.93,131.46,311.51Z"/><path class="cls-85" d="M25.61,261.9a.25.25,0,0,1-.22-.12.26.26,0,0,1,.09-.35L27.85,260a.25.25,0,0,1,.25.43l-2.36,1.4A.31.31,0,0,1,25.61,261.9Z"/><path class="cls-85" d="M32.39,265.79a.25.25,0,0,1-.22-.12.25.25,0,0,1,.09-.34l2.37-1.39a.25.25,0,1,1,.25.43l-2.37,1.39Z"/><path class="cls-85" d="M39.17,269.69a.25.25,0,0,1-.22-.12.26.26,0,0,1,.09-.35l2.37-1.39a.25.25,0,0,1,.34.09.26.26,0,0,1-.09.35l-2.37,1.39Z"/><path class="cls-85" d="M46,273.59a.26.26,0,0,1-.22-.13.25.25,0,0,1,.09-.34l2.37-1.39a.25.25,0,1,1,.25.43l-2.37,1.39A.28.28,0,0,1,46,273.59Z"/><path class="cls-85" d="M52.73,277.48a.25.25,0,0,1-.22-.12.26.26,0,0,1,.09-.35L55,275.62a.25.25,0,0,1,.34.09.26.26,0,0,1-.09.35l-2.37,1.39A.27.27,0,0,1,52.73,277.48Z"/><path class="cls-85" d="M59.51,281.38a.26.26,0,0,1-.22-.13.25.25,0,0,1,.09-.34l2.37-1.39A.25.25,0,0,1,62,280l-2.37,1.39A.19.19,0,0,1,59.51,281.38Z"/><path class="cls-85" d="M66.28,285.27a.25.25,0,0,1-.12-.46l2.37-1.4a.26.26,0,0,1,.34.09.26.26,0,0,1-.09.35l-2.37,1.39A.28.28,0,0,1,66.28,285.27Z"/><path class="cls-85" d="M73.06,289.17a.25.25,0,0,1-.12-.47l2.37-1.39a.25.25,0,1,1,.25.43l-2.37,1.39A.2.2,0,0,1,73.06,289.17Z"/><path class="cls-85" d="M79.84,293.06a.24.24,0,0,1-.21-.12.25.25,0,0,1,.09-.34l2.37-1.39a.25.25,0,0,1,.34.08.26.26,0,0,1-.09.35L80,293A.28.28,0,0,1,79.84,293.06Z"/><path class="cls-85" d="M86.62,297a.24.24,0,0,1-.21-.13.25.25,0,0,1,.09-.34l2.36-1.39a.26.26,0,0,1,.35.09.25.25,0,0,1-.09.34l-2.37,1.39A.2.2,0,0,1,86.62,297Z"/><path class="cls-85" d="M93.4,300.85a.24.24,0,0,1-.21-.12.25.25,0,0,1,.09-.34L95.64,299a.26.26,0,0,1,.35.09.25.25,0,0,1-.09.34l-2.37,1.39A.28.28,0,0,1,93.4,300.85Z"/><path class="cls-85" d="M100.18,304.75a.24.24,0,0,1-.21-.13.26.26,0,0,1,.08-.34l2.37-1.39a.26.26,0,0,1,.35.09.25.25,0,0,1-.09.34l-2.37,1.39A.22.22,0,0,1,100.18,304.75Z"/><path d="M164,281.93h0a6.54,6.54,0,0,0-7-.26l-39.22,22.84a2.75,2.75,0,0,0-.17,4.65h0a7.16,7.16,0,0,0,7.67.28L163.85,287A3,3,0,0,0,164,281.93Z"/><path class="cls-86" d="M164,280.78h0a6.54,6.54,0,0,0-7-.25l-39.22,22.84a2.75,2.75,0,0,0-.17,4.65h0a7.16,7.16,0,0,0,7.67.28l38.52-22.43A3,3,0,0,0,164,280.78Z"/><path d="M151.61,293.73l-8-5.49a2.34,2.34,0,0,0-2.47-.09l-9.73,5.67a.94.94,0,0,0-.06,1.6l8,5.49a2.32,2.32,0,0,0,2.47.09l9.73-5.67A1,1,0,0,0,151.61,293.73Z"/><path class="cls-87" d="M151.61,293.1l-8-5.48a2.32,2.32,0,0,0-2.47-.09l-9.73,5.67a.94.94,0,0,0-.06,1.6l8,5.48a2.3,2.3,0,0,0,2.47.09l9.73-5.66A1,1,0,0,0,151.61,293.1Z"/><path class="cls-88" d="M131.33,294.25l8,5.48a2.32,2.32,0,0,0,2.47.09l9.73-5.67a1,1,0,0,0,.43-.53,1,1,0,0,1-.43,1.09l-9.73,5.66a2.3,2.3,0,0,1-2.47-.09l-8-5.48a.94.94,0,0,1-.37-1.07A1,1,0,0,0,131.33,294.25Z"/><polygon class="cls-89" points="159.21 289.69 159.21 288.52 151.69 283.64 151.17 283.91 158.58 288.83 158.58 290.04 159.21 289.69"/><polygon points="158.86 289.97 158.86 288.8 151.35 283.91 150.83 284.19 158.24 289.11 158.24 290.32 158.86 289.97"/><polygon class="cls-90" points="131.65 305.69 131.65 304.51 124.13 299.63 123.61 299.91 131.02 304.82 131.02 306.04 131.65 305.69"/><polygon points="131.3 305.97 131.3 304.79 123.79 299.91 123.27 300.19 130.68 305.1 130.68 306.31 131.3 305.97"/><path class="cls-91" d="M146.11,293.17l-3.4-2.34a1.6,1.6,0,0,0-1.72-.07l-4.29,2.5a.79.79,0,0,0,0,1.33l3.4,2.34a1.6,1.6,0,0,0,1.72.07l4.29-2.5A.79.79,0,0,0,146.11,293.17Z"/><path class="cls-92" d="M179,287.6c-.09,1.56-1.08,3-3,4.14L154.83,304l2.62,1.89L176,295.14c2-1.15,3-2.69,3-4.31C179,290.71,179,288.27,179,287.6Z"/><path class="cls-93" d="M83.23,305.46l-62.79-36.2c-3.17-1.83-4.6-4.24-4.2-6.43a1.41,1.41,0,0,0-.07.49c0,.14,0,3.84,0,4,.16,1.87,1.6,3.81,4.26,5.34l65,37.48Z"/><path class="cls-94" d="M207.29,146.45c6.18,3.56,11.19.71,11.19-6.38s-5-15.72-11.19-19.29-11.18-.71-11.18,6.38S201.12,142.88,207.29,146.45Zm37.56-3.53c-10.2-5.89-17.46,37.87-28.84,31.3s-15.5-26.06-24.53-31.27c-6.24-3.61-13.39,22.1-18.44,26.05v.4l95.55,55.17v-1.08C260.74,209.53,252.68,147.44,244.85,142.92Zm20.54,2.39v1.32l-18.63-11v-1.73l-3.83-2.21v1.68l-14.53-8.55v-1l-3.51-2v4l3.51,2V126l13.9,8.18a5.64,5.64,0,0,0-1.78.25c-3.66,1.13-6.42,5.75-8.85,10.71l-1.66-.95a.5.5,0,0,0-.5,0,.5.5,0,0,0-.25.43V149a.52.52,0,0,0,.25.44l3.83,2.21a.55.55,0,0,0,.5,0,.52.52,0,0,0,.25-.44v-4.39a.5.5,0,0,0-.25-.43l-1.31-.76c2.25-4.57,5-9.23,8.28-10.25a4.75,4.75,0,0,1,2.12-.17v.88l3.83,2.21v-1.16c3,2.72,7.34,9.33,9.89,19.86l-1.14-.66a.5.5,0,0,0-.5,0,.52.52,0,0,0-.25.44v4.39a.5.5,0,0,0,.25.43l3.83,2.21a.48.48,0,0,0,.5,0,.5.5,0,0,0,.25-.43V159a.52.52,0,0,0-.25-.44l-1.49-.86c-2-8.69-5.42-15.56-8.67-19.47l16.21,9.54v1.54l3.51,2v-4Zm-32.3,1.83v3.24l-2.83-1.64v-3.23Zm25.5,12.16v3.24l-2.83-1.63v-3.24Z"/><ellipse class="cls-95" cx="205.79" cy="134.11" rx="9.1" ry="15.77" transform="translate(-39.55 122.19) rotate(-30.31)"/><path class="cls-96" d="M171.54,169.9l95.55,55.17V224c-7.85-14-15.91-76.05-23.74-80.57-10.2-5.89-17.46,37.87-28.84,31.3S199,148.66,190,143.45c-6.24-3.61-13.39,22.1-18.44,26.05Z"/><path class="cls-97" d="M263.89,145.81v1.32l-18.63-11v-1.73l-3.83-2.21v1.68l-14.53-8.55v-1l-3.51-2v4l3.51,2v-1.84l13.9,8.18A5.64,5.64,0,0,0,239,135c-3.66,1.13-6.42,5.75-8.85,10.71l-1.66-.95a.5.5,0,0,0-.5,0,.5.5,0,0,0-.25.43v4.39a.52.52,0,0,0,.25.44l3.83,2.21a.55.55,0,0,0,.5,0,.52.52,0,0,0,.25-.44v-4.39a.5.5,0,0,0-.25-.43l-1.31-.76c2.25-4.57,5-9.23,8.28-10.25a4.75,4.75,0,0,1,2.12-.17v.88l3.83,2.21v-1.16c3,2.72,7.34,9.33,9.89,19.86l-1.14-.66a.5.5,0,0,0-.5,0,.52.52,0,0,0-.25.44v4.39a.5.5,0,0,0,.25.43l3.83,2.21a.48.48,0,0,0,.5,0,.5.5,0,0,0,.25-.43v-4.39a.52.52,0,0,0-.25-.44l-1.49-.86c-2-8.69-5.42-15.56-8.67-19.47l16.21,9.54v1.54l3.51,2v-4Zm-32.3,5.07-2.83-1.64V146l2.83,1.63ZM257.09,163l-2.83-1.63v-3.24l2.83,1.63Z"/><path class="cls-98" d="M74.6,264.12a13.72,13.72,0,0,1-6.78-1.64c-1.91-1.1-3-2.59-3-4.2s1-3.07,2.92-4.16a13.62,13.62,0,0,1,6.71-1.61,13.82,13.82,0,0,1,6.78,1.63c1.91,1.11,3,2.6,3,4.21s-1,3.07-2.92,4.16A13.73,13.73,0,0,1,74.6,264.12Zm-.11-10.61A12.65,12.65,0,0,0,68.28,255c-1.56.9-2.42,2.07-2.42,3.29s.88,2.42,2.46,3.34a12.87,12.87,0,0,0,6.28,1.5,12.65,12.65,0,0,0,6.21-1.48c1.56-.9,2.42-2.07,2.42-3.29s-.88-2.42-2.46-3.34A12.76,12.76,0,0,0,74.49,253.51Z"/><path class="cls-99" d="M85.84,286.49l-.88-.3,0-.3c-.19-1.24-1.92-3.71-3.6-6.1-2.45-3.51-5-7.13-4.54-9.16a1.77,1.77,0,0,1,.88-1.2c2.44-1.41,6-1.36,9.87-1.3,4.2.07,8.54.13,11.71-1.7a1.86,1.86,0,0,0,1-1.24c.49-2.17-2.29-6.19-4.53-9.43a.5.5,0,1,1,.82-.56c2.47,3.57,5.27,7.62,4.69,10.21a2.85,2.85,0,0,1-1.43,1.89c-3.41,2-7.88,1.9-12.22,1.83-3.68-.05-7.16-.1-9.36,1.17a.78.78,0,0,0-.4.55c-.36,1.6,2.27,5.35,4.38,8.36,1.74,2.49,3.26,4.66,3.68,6.14l43.34-25a.51.51,0,0,1,.69.18.5.5,0,0,1-.19.68Z"/><path class="cls-100" d="M97.4,253.73c-.79.42-3.24,1-3.66.24s1.34-2.66,2.12-3.09a1.62,1.62,0,0,1,1.54,2.85Z"/><path class="cls-101" d="M111.29,250.75c4.16-2.19-1.4-12.9-5.94-10.27s-9.55,9.45-9.55,9.45h0a2.28,2.28,0,0,0-.09,2.78,2.19,2.19,0,0,0,2.37,1.45h0S107.13,252.93,111.29,250.75Z"/><path class="cls-102" d="M142.2,233.71l-5.69-10.55-31.24,17.31h0l0,0c-1.7.92-1.8,4-.23,6.94s4.22,4.53,5.92,3.62l0,0h0Z"/><path class="cls-103" d="M142.17,233.73c-1.69.91-4.34-.71-5.91-3.63s-1.47-6,.23-6.93,4.34.71,5.91,3.62S143.87,232.81,142.17,233.73Z"/><path class="cls-104" d="M186.46,208.72l-4.6-8.55-45.43,23.09h0l0,0c-1.7.91-1.8,4-.23,6.93s4.22,4.54,5.92,3.62a.05.05,0,0,1,0,0h0Z"/><path class="cls-105" d="M186.45,208.72c-1.38.75-3.52-.57-4.8-2.93s-1.18-4.87.19-5.62,3.52.58,4.79,2.94S187.82,208,186.45,208.72Z"/><path class="cls-106" d="M181.85,205.75c-1.27-2.36-1.19-4.87.19-5.62l.09,0a2.41,2.41,0,0,0-.45.16c-1.37.74-1.46,3.26-.18,5.62s3.32,3.61,4.69,3C184.83,209.14,183,207.87,181.85,205.75Z"/><path class="cls-107" d="M144.14,281l-39.5-23.56-.48-.24a66.62,66.62,0,0,0-9.11-3.87h0c-.63-.21-.94,0-.78.72a3.35,3.35,0,0,0,1.37,2h0s5.85,4.84,9.62,7.34a5.22,5.22,0,0,0,.64.47l0,0h0l39.67,23.81Z"/><path class="cls-108" d="M116.87,266.08,99.16,255.52a1.43,1.43,0,0,0-.22-.11,29.36,29.36,0,0,0-4.08-1.74h0c-.28-.1-.14.86.26,1.22h0s2.62,2.18,4.31,3.3a2.64,2.64,0,0,0,.29.21h0l17.79,10.67Z"/><path class="cls-109" d="M179.24,204c.65,1.25-9.4,7.84-19.26,13s-18.39,8.37-19,7.13,6.81-6.46,16.67-11.63S178.59,202.8,179.24,204Z"/><rect class="cls-110" x="103.4" y="234.11" width="32.54" height="3.5" rx="1.25" transform="translate(-98.19 85.9) rotate(-28.56)"/><rect class="cls-111" x="106.92" y="236.24" width="19.06" height="2.59" rx="0.92" transform="translate(-99.38 84.56) rotate(-28.56)"/><path class="cls-112" d="M124.82,233a1.23,1.23,0,0,0-.49-.47.91.91,0,0,1,.18.21,1.3,1.3,0,0,1-.52,1.76l-14.46,7.87a1.28,1.28,0,0,1-1.27,0,1.27,1.27,0,0,0,1.58.31l14.46-7.87A1.3,1.3,0,0,0,124.82,233Z"/><path class="cls-113" d="M178.59,202.18l-72.95,38.71a5.76,5.76,0,0,0-.5.37c-4.38,2.84-9.34,8.67-9.34,8.67h0a2.28,2.28,0,0,0-.09,2.78,2.19,2.19,0,0,0,2.37,1.45h0s7.57-1,12-2.87a2.18,2.18,0,0,0,.79-.23l0,0h0l72.16-40.49Z"/><path class="cls-114" d="M108.25,243.16c3.69-2.9,2-5.33-2.08-2s-9.54,8.72-9.54,8.72h0c-.63.6-.94,1.07-.74,1.32s.53.17,1.46-.4l0,0S104.56,246.06,108.25,243.16Z"/><path class="cls-115" d="M110,250.56c3.86-1.16,3.51-2.89-.79-1.57s-10.43,3.71-10.43,3.71h0c-.7.26-1.1.5-1,.68s.33.19,1.25,0h0S106.09,251.71,110,250.56Z"/><polygon class="cls-116" points="230.11 65.97 145.88 17.18 115.24 35.37 115.24 64.08 199.4 112.76 199.4 112.77 199.41 112.77 199.43 112.77 199.43 112.76 230.11 94.68 230.11 65.97"/><g class="cls-27"><polygon class="cls-117" points="199.4 84.23 199.4 112.77 207.68 108 207.68 79.29 199.4 84.23"/><polygon class="cls-118" points="199.43 84.23 199.43 112.77 115.24 64.08 115.24 35.37 199.43 84.23"/><polygon class="cls-119" points="115.24 35.37 199.43 84.23 207.68 79.29 123.45 30.5 115.24 35.37"/></g><polygon class="cls-57" points="130.7 68.3 121 62.7 121 43.72 130.7 49.32 130.7 68.3"/><polygon class="cls-58" points="143.41 75.64 133.71 70.04 133.71 51.05 143.41 56.66 143.41 75.64"/><polygon class="cls-59" points="156.12 82.98 146.43 77.38 146.43 58.39 156.12 63.99 156.12 82.98"/><polygon class="cls-60" points="168.83 90.32 159.13 84.72 159.13 65.73 168.83 71.33 168.83 90.32"/><polygon class="cls-61" points="181.54 97.66 171.85 92.06 171.85 73.07 181.54 78.67 181.54 97.66"/><polygon class="cls-62" points="194.26 105 184.56 99.39 184.56 80.41 194.26 86.01 194.26 105"/><path class="cls-120" d="M36.43,289.78,9.53,274.27C3.47,270.77,0,265.38,0,259.47,0,253.94,3,249,8.27,246l87.57-50.33.5.87L8.77,246.87C3.83,249.72,1,254.31,1,259.47c0,5.54,3.29,10.62,9,13.93l26.9,15.51Z"/></g></g></g></svg>